<?xml version="1.0" encoding="UTF-8" standalone="no"?>
<!DOCTYPE svg PUBLIC "-//W3C//DTD SVG 1.1//EN"
 "http://www.w3.org/Graphics/SVG/1.1/DTD/svg11.dtd">
<!-- Generated by graphviz version 2.43.0 (0)
 -->
<!-- Title: id Pages: 1 -->
<svg width="215pt" height="126pt"
 viewBox="0.00 0.00 214.95 126.00" xmlns="http://www.w3.org/2000/svg" xmlns:xlink="http://www.w3.org/1999/xlink">
<g id="graph0" class="graph" transform="scale(1 1) rotate(0) translate(4 122)">
<title>id</title>
<polygon fill="white" stroke="transparent" points="-4,4 -4,-122 210.95,-122 210.95,4 -4,4"/>
<!-- nod -->
<g id="node1" class="node">
<title>nod</title>
<ellipse fill="none" stroke="black" cx="27.95" cy="-100" rx="27.9" ry="18"/>
<text text-anchor="middle" x="27.95" y="-96.3" font-family="Times,serif" font-size="14.00">nod</text>
</g>
<!-- a -->
<g id="node2" class="node">
<title>a</title>
<ellipse fill="none" stroke="black" cx="100.95" cy="-100" rx="27" ry="18"/>
<text text-anchor="middle" x="100.95" y="-96.3" font-family="Times,serif" font-size="14.00">a</text>
</g>
<!-- n -->
<g id="node3" class="node">
<title>n</title>
<polygon fill="none" stroke="black" points="100.95,-46 67.35,-11.5 134.54,-11.5 100.95,-46"/>
<text text-anchor="middle" x="100.95" y="-19.3" font-family="Times,serif" font-size="14.00">n</text>
</g>
<!-- a&#45;&#45;n -->
<g id="edge1" class="edge">
<title>a&#45;&#45;n</title>
<path fill="none" stroke="black" d="M100.95,-81.98C100.95,-71.35 100.95,-57.55 100.95,-46.08"/>
</g>
<!-- a1 -->
<g id="node4" class="node">
<title>a1</title>
<ellipse fill="none" stroke="black" cx="179.95" cy="-100" rx="27" ry="18"/>
<text text-anchor="middle" x="179.95" y="-96.3" font-family="Times,serif" font-size="14.00">a1</text>
</g>
<!-- a2 -->
<g id="node5" class="node">
<title>a2</title>
<ellipse fill="none" stroke="black" cx="179.95" cy="-23" rx="27" ry="18"/>
<text text-anchor="middle" x="179.95" y="-19.3" font-family="Times,serif" font-size="14.00">a2</text>
</g>
<!-- a1&#45;&#45;a2 -->
<g id="edge2" class="edge">
<title>a1&#45;&#45;a2</title>
<path fill="none" stroke="black" d="M179.95,-81.98C179.95,-69.79 179.95,-53.44 179.95,-41.21"/>
</g>
</g>
</svg>
